<?xml version="1.0" encoding="UTF-8" standalone="no"?>
<svg
   xmlns:dc="http://purl.org/dc/elements/1.1/"
   xmlns:cc="http://creativecommons.org/ns#"
   xmlns:rdf="http://www.w3.org/1999/02/22-rdf-syntax-ns#"
   xmlns:svg="http://www.w3.org/2000/svg"
   xmlns="http://www.w3.org/2000/svg"
   version="1.1"
   id="svg2"
   viewBox="0 0 32 32"
   height="32"
   width="32"
   y="0px"
   x="0px">
  <metadata
     id="metadata16">
    <rdf:RDF>
      <cc:Work
         rdf:about="">
        <dc:format>image/svg+xml</dc:format>
        <dc:type
           rdf:resource="http://purl.org/dc/dcmitype/StillImage" />
        <dc:title></dc:title>
      </cc:Work>
    </rdf:RDF>
  </metadata>
  <defs
     id="defs14" />
  <g
     id="g4">
    <polygon
       style="fill:#7b9d6f"
       id="polygon6"
       points="4.6,4 6,2.6 11.4,8 6,13.4 4.6,12 8.6,8 " />
  </g>
  <g
     id="g8"
     transform="translate(0,16)">
    <polygon
       style="fill:#dfdfdf"
       id="polygon10"
       points="4.6,4 6,2.6 11.4,8 6,13.4 4.6,12 8.6,8 " />
  </g>
  <g
     transform="translate(18,0)"
     id="g3376">
    <polygon
       points="6,13.4 4.6,12 8.6,8 4.6,4 6,2.6 11.4,8 "
       id="polygon3378"
       style="fill:#7b9d6f" />
  </g>
  <g
     transform="translate(18,16)"
     id="g3380">
    <polygon
       points="6,13.4 4.6,12 8.6,8 4.6,4 6,2.6 11.4,8 "
       id="polygon3382"
       style="fill:#dfdfdf" />
  </g>
  <g
     id="g3384"
     transform="translate(14,0)">
    <polygon
       style="fill:#7b9d6f"
       id="polygon3386"
       points="8.6,8 4.6,4 6,2.6 11.4,8 6,13.4 4.6,12 " />
  </g>
  <g
     id="g3388"
     transform="translate(14,16)">
    <polygon
       style="fill:#dfdfdf"
       id="polygon3390"
       points="8.6,8 4.6,4 6,2.6 11.4,8 6,13.4 4.6,12 " />
  </g>
</svg>
